<svg height="480pt" viewBox="-120 0 480 480" width="480pt" xmlns="http://www.w3.org/2000/svg"><path d="m239.695312 117.808594-32-112c-.980468-3.4375-4.121093-5.808594-7.695312-5.808594h-160c-3.574219 0-6.714844 2.371094-7.695312 5.808594l-32 112c-.152344.722656-.2539068 1.453125-.304688 2.191406v352c0 4.417969 3.582031 8 8 8h224c4.417969 0 8-3.582031 8-8v-352c-.050781-.738281-.152344-1.46875-.304688-2.191406zm-15.695312 154.191406h-208v-144h208zm-177.96875-256h147.9375l27.421875 96h-202.78125zm177.96875 448h-208v-176h208zm0 0"/><path d="m48 192h144c4.417969 0 8-3.582031 8-8v-32c0-4.417969-3.582031-8-8-8h-144c-4.417969 0-8 3.582031-8 8v32c0 4.417969 3.582031 8 8 8zm8-32h128v16h-128zm0 0"/><path d="m48 256h144c4.417969 0 8-3.582031 8-8v-32c0-4.417969-3.582031-8-8-8h-144c-4.417969 0-8 3.582031-8 8v32c0 4.417969 3.582031 8 8 8zm8-32h128v16h-128zm0 0"/><path d="m120 432c24.84375-.144531 45.476562-19.222656 47.554688-43.984375 2.078124-24.757813-15.082032-47.011719-39.554688-51.296875v-16.71875c0-4.417969-3.582031-8-8-8s-8 3.582031-8 8v16.71875c-24.472656 4.285156-41.632812 26.539062-39.554688 51.296875 2.078126 24.761719 22.710938 43.839844 47.554688 43.984375zm-8-78.863281v30.863281c0 4.417969 3.582031 8 8 8s8-3.582031 8-8v-30.863281c15.601562 4.027343 25.777344 19.03125 23.746094 35.015625s-15.632813 27.96875-31.746094 27.96875-29.714844-11.984375-31.746094-27.96875 8.144532-30.988282 23.746094-35.015625zm0 0"/><path d="m136 32h-72c-4.417969 0-8 3.582031-8 8s3.582031 8 8 8h72c4.417969 0 8-3.582031 8-8s-3.582031-8-8-8zm0 0"/><path d="m173.679688 34.320312c-2.320313-2.230468-5.734376-2.886718-8.71875-1.679687-2.011719.726563-3.59375 2.308594-4.320313 4.320313-1.277344 2.976562-.609375 6.429687 1.679687 8.71875.777344.707031 1.671876 1.273437 2.640626 1.679687 2.460937 1.054687 5.285156.796875 7.511718-.6875 2.226563-1.484375 3.554688-3.996094 3.527344-6.671875.023438-1.050781-.195312-2.089844-.640625-3.039062-.386719-.980469-.957031-1.875-1.679687-2.640626zm0 0"/></svg>