<?xml version="1.0" encoding="iso-8859-1"?>
<!-- Generator: Adobe Illustrator 19.0.0, SVG Export Plug-In . SVG Version: 6.00 Build 0)  -->
<svg version="1.1" id="Capa_1" xmlns="http://www.w3.org/2000/svg" xmlns:xlink="http://www.w3.org/1999/xlink" x="0px" y="0px"
	 viewBox="0 0 480 480" style="enable-background:new 0 0 480 480;" xml:space="preserve">
<g>
	<g>
		<g>
			<path d="M360,0H120c-13.255,0-24,10.745-24,24v408c0,13.255,10.745,24,24,24v16c0,4.418,3.582,8,8,8h32c4.418,0,8-3.582,8-8v-16
				h144v16c0,4.418,3.582,8,8,8h32c4.418,0,8-3.582,8-8v-16c13.255,0,24-10.745,24-24V24C384,10.745,373.255,0,360,0z M152,464h-16
				v-8h16V464z M344,464h-16v-8h16V464z M368,432c0,4.418-3.582,8-8,8H120c-4.418,0-8-3.582-8-8V292.536
				c42.086-8.805,85.005-13.008,128-12.536c42.995-0.472,85.914,3.731,128,12.536V432z M368,276.136
				c-42.129-8.482-85.028-12.549-128-12.136c-42.972-0.413-85.871,3.654-128,12.136V24c0-4.418,3.582-8,8-8h240c4.418,0,8,3.582,8,8
				V276.136z"/>
			<path d="M320,40H160c-13.255,0-24,10.745-24,24v8c0,13.255,10.745,24,24,24h160c13.255,0,24-10.745,24-24v-8
				C344,50.745,333.255,40,320,40z M328,72c0,4.418-3.582,8-8,8H160c-4.418,0-8-3.582-8-8v-8c0-4.418,3.582-8,8-8h160
				c4.418,0,8,3.582,8,8V72z"/>
			<path d="M320,112H160c-13.255,0-24,10.745-24,24v8c0,13.255,10.745,24,24,24h160c13.255,0,24-10.745,24-24v-8
				C344,122.745,333.255,112,320,112z M328,144c0,4.418-3.582,8-8,8H160c-4.418,0-8-3.582-8-8v-8c0-4.418,3.582-8,8-8h160
				c4.418,0,8,3.582,8,8V144z"/>
			<path d="M248,304c0-4.418-3.582-8-8-8s-8,3.582-8,8v10.704c-20.638,4.379-33.818,24.659-29.439,45.297
				c3.75,17.675,19.371,30.305,37.439,30.271c0.672,0,1.352,0,2.024-0.048c21.057-1.073,37.256-19.013,36.183-40.07
				c-0.881-17.283-13.278-31.812-30.207-35.402V304z M260.8,359.994c-3.15,8.214-10.846,13.798-19.632,14.246
				c-12.247,0.675-22.721-8.706-23.396-20.953c-0.531-9.633,5.219-18.507,14.228-21.959V344c0,4.418,3.582,8,8,8s8-3.582,8-8
				v-12.736C259.468,335.663,265.199,348.526,260.8,359.994z"/>
			<path d="M160,392h-32c-4.418,0-8,3.582-8,8v24c0,4.418,3.582,8,8,8h32c4.418,0,8-3.582,8-8v-24C168,395.582,164.418,392,160,392z
				 M152,416h-16v-8h16V416z"/>
		</g>
	</g>
</g>
<g>
</g>
<g>
</g>
<g>
</g>
<g>
</g>
<g>
</g>
<g>
</g>
<g>
</g>
<g>
</g>
<g>
</g>
<g>
</g>
<g>
</g>
<g>
</g>
<g>
</g>
<g>
</g>
<g>
</g>
</svg>
