<svg height="512" viewBox="0 0 128 128" width="512" xmlns="http://www.w3.org/2000/svg"><g><path d="m121.5 22.442h-95.558v-7.1a1.75 1.75 0 0 0 -1.75-1.75h-17.692a1.75 1.75 0 0 0 0 3.5h15.942v18.085h-6.25a1.751 1.751 0 0 0 -1.75 1.75v12a1.75 1.75 0 0 0 1.75 1.75h6.25v26.646h-6.25a1.75 1.75 0 0 0 -1.75 1.75v12a1.751 1.751 0 0 0 1.75 1.75h6.25v19.831a1.75 1.75 0 0 0 3.5 0v-7.1h16.581v6.25a1.751 1.751 0 0 0 1.75 1.75h35a1.75 1.75 0 0 0 1.75-1.75v-6.25h15.146v6.25a1.75 1.75 0 0 0 1.75 1.75h12a1.75 1.75 0 0 0 1.75-1.75v-6.25h9.831a1.75 1.75 0 0 0 1.75-1.75v-79.612a1.75 1.75 0 0 0 -1.75-1.75zm-103.558 24.735v-8.5h4.5v8.5zm0 42.146v-8.5h4.5v8.5zm59.581 20.735h-31.5v-4.5h31.5zm30.646 0h-8.5v-4.5h8.5zm11.581-8h-93.808v-76.116h93.808z"/><path d="m109.5 40.942a4.75 4.75 0 1 0 -4.75-4.75 4.755 4.755 0 0 0 4.75 4.75zm0-6a1.25 1.25 0 1 1 -1.25 1.25 1.252 1.252 0 0 1 1.25-1.25z"/><path d="m36.192 40.942a4.75 4.75 0 1 0 -4.75-4.75 4.754 4.754 0 0 0 4.75 4.75zm0-6a1.25 1.25 0 1 1 -1.25 1.25 1.251 1.251 0 0 1 1.25-1.25z"/><path d="m109.5 96.558a4.75 4.75 0 1 0 -4.75-4.75 4.756 4.756 0 0 0 4.75 4.75zm0-6a1.25 1.25 0 1 1 -1.25 1.25 1.251 1.251 0 0 1 1.25-1.25z"/><path d="m36.192 96.558a4.75 4.75 0 1 0 -4.75-4.75 4.755 4.755 0 0 0 4.75 4.75zm0-6a1.25 1.25 0 1 1 -1.25 1.25 1.25 1.25 0 0 1 1.25-1.25z"/><path d="m46.359 71.343h9.1a1.727 1.727 0 0 0 .573-.1l17.425 8.387a1.731 1.731 0 0 0 .759.174 1.752 1.752 0 0 0 1.75-1.75v-5.912a8.327 8.327 0 0 0 0-16.284v-5.908a1.75 1.75 0 0 0 -2.509-1.576l-17.421 8.387a1.727 1.727 0 0 0 -.573-.1h-9.1a1.75 1.75 0 0 0 -1.75 1.75v11.182a1.75 1.75 0 0 0 1.746 1.75zm32.691-7.343a4.83 4.83 0 0 1 -3.08 4.49v-8.98a4.83 4.83 0 0 1 3.08 4.49zm-6.58 11.265-15.257-7.343v-7.844l15.257-7.343zm-24.361-15.108h5.6v7.686h-5.6z"/><path d="m94.235 78.949a1.749 1.749 0 0 0 2.429-.473 25.92 25.92 0 0 0 0-28.952 1.75 1.75 0 0 0 -2.9 1.956 22.422 22.422 0 0 1 0 25.04 1.75 1.75 0 0 0 .471 2.429z"/><path d="m85.386 74.91a1.751 1.751 0 0 0 2.466-.207 16.6 16.6 0 0 0 0-21.406 1.75 1.75 0 1 0 -2.672 2.26 13.106 13.106 0 0 1 0 16.886 1.75 1.75 0 0 0 .206 2.467z"/></g></svg>