<svg id="Layer_3" enable-background="new 0 0 64 64" height="512" viewBox="0 0 64 64" width="512" xmlns="http://www.w3.org/2000/svg"><g><path d="m55 14c0-.552-.447-1-1-1h-40c-.553 0-1 .448-1 1v36c0 .552.447 1 1 1h40c.553 0 1-.448 1-1v-1h2v-2h-2v-2h2v-2h-2v-2h2v-2h-2v-2h2v-2h-2v-2h2v-2h-2v-2h2v-2h-2v-2h2v-2h-2v-2h2v-2h-2v-2h2v-2h-2zm-2 35h-38v-34h38z"/><path d="m25.5 29h1c1.93 0 3.5-1.57 3.5-3.5s-1.57-3.5-3.5-3.5h-1c-.827 0-1.5-.673-1.5-1.5s.673-1.5 1.5-1.5h1c.827 0 1.5.673 1.5 1.5v.5h2v-.5c0-1.93-1.57-3.5-3.5-3.5h-1c-1.93 0-3.5 1.57-3.5 3.5s1.57 3.5 3.5 3.5h1c.827 0 1.5.673 1.5 1.5s-.673 1.5-1.5 1.5h-1c-.827 0-1.5-.673-1.5-1.5v-.5h-2v.5c0 1.93 1.57 3.5 3.5 3.5z"/><path d="m34.5 29h1c1.93 0 3.5-1.57 3.5-3.5s-1.57-3.5-3.5-3.5h-1c-.827 0-1.5-.673-1.5-1.5s.673-1.5 1.5-1.5h1c.827 0 1.5.673 1.5 1.5v.5h2v-.5c0-1.93-1.57-3.5-3.5-3.5h-1c-1.93 0-3.5 1.57-3.5 3.5s1.57 3.5 3.5 3.5h1c.827 0 1.5.673 1.5 1.5s-.673 1.5-1.5 1.5h-1c-.827 0-1.5-.673-1.5-1.5v-.5h-2v.5c0 1.93 1.57 3.5 3.5 3.5z"/><path d="m41 29h3c2.206 0 4-1.794 4-4v-4c0-2.206-1.794-4-4-4h-3c-.553 0-1 .448-1 1v10c0 .552.447 1 1 1zm1-10h2c1.103 0 2 .897 2 2v4c0 1.103-.897 2-2 2h-2z"/><path d="m17 30h31v2h-31z"/><path d="m30 33h18v2h-18z"/><path d="m60 9h-50c-.553 0-1 .448-1 1v2c0 .551-.448 1-1 1s-1-.449-1-1v-2c0-.552-.447-1-1-1h-2c-1.654 0-3 1.346-3 3v6 28 6c0 1.654 1.346 3 3 3h56c1.654 0 3-1.346 3-3v-40c0-1.654-1.346-3-3-3zm-52.999 36h-4.001v-2h4.001zm0-4h-4.001v-2h4.001zm0-4h-4.001v-2h4.001zm0-4h-4.001v-2h4zm-.001-4h-4v-2h4zm0-4h-4v-2h4zm-4-4v-2h4v2zm58 31c0 .551-.448 1-1 1h-56c-.552 0-1-.449-1-1v-5h4c1.103 0 2-.897 2-2v-26c0-1.103-.897-2-2-2h-4v-5c0-.551.448-1 1-1h1v1c0 1.654 1.346 3 3 3s3-1.346 3-3v-1h49c.552 0 1 .449 1 1z"/><path d="m17.5 48c.827 0 1.5-.673 1.5-1.5s-.673-1.5-1.5-1.5-1.5.673-1.5 1.5.673 1.5 1.5 1.5zm0-2c.275 0 .5.224.5.5s-.225.5-.5.5-.5-.224-.5-.5.225-.5.5-.5z"/><path d="m17.5 19c.827 0 1.5-.673 1.5-1.5s-.673-1.5-1.5-1.5-1.5.673-1.5 1.5.673 1.5 1.5 1.5zm0-2c.275 0 .5.224.5.5s-.225.5-.5.5-.5-.224-.5-.5.225-.5.5-.5z"/><path d="m50.5 48c.827 0 1.5-.673 1.5-1.5s-.673-1.5-1.5-1.5-1.5.673-1.5 1.5.673 1.5 1.5 1.5zm0-2c.275 0 .5.224.5.5s-.225.5-.5.5-.5-.224-.5-.5.225-.5.5-.5z"/><path d="m50.5 19c.827 0 1.5-.673 1.5-1.5s-.673-1.5-1.5-1.5-1.5.673-1.5 1.5.673 1.5 1.5 1.5zm0-2c.275 0 .5.224.5.5s-.225.5-.5.5-.5-.224-.5-.5.225-.5.5-.5z"/><path d="m46 41h-4c-.553 0-1 .448-1 1v4c0 .552.447 1 1 1h4c.553 0 1-.448 1-1v-4c0-.552-.447-1-1-1zm-1 4h-2v-2h2z"/><path d="m39 41h-4c-.553 0-1 .448-1 1v4c0 .552.447 1 1 1h4c.553 0 1-.448 1-1v-4c0-.552-.447-1-1-1zm-1 4h-2v-2h2z"/><path d="m32 42h-10c-.553 0-1 .448-1 1v3c0 .552.447 1 1 1h10c.553 0 1-.448 1-1v-3c0-.552-.447-1-1-1zm-1 3h-8v-1h8z"/></g></svg>