<?xml version="1.0" encoding="iso-8859-1"?>
<!-- Generator: Adobe Illustrator 19.0.0, SVG Export Plug-In . SVG Version: 6.00 Build 0)  -->
<svg version="1.1" id="Capa_1" xmlns="http://www.w3.org/2000/svg" xmlns:xlink="http://www.w3.org/1999/xlink" x="0px" y="0px"
	 viewBox="0 0 490 490" style="enable-background:new 0 0 490 490;" xml:space="preserve">
<g>
	<path d="M213.571,262.81c-35.031,0-63.524,28.497-63.524,63.529c0,35.031,28.493,63.528,63.524,63.528s63.533-28.497,63.533-63.528
		C277.104,291.306,248.602,262.81,213.571,262.81z M213.571,369.45c-23.766,0-43.107-19.34-43.107-43.111
		s19.341-43.112,43.107-43.112c23.777,0,43.116,19.341,43.116,43.112S237.347,369.45,213.571,369.45z"/>
	<path d="M488.311,230.775c-6.608-36.596-30.308-67.504-62.56-82.224l-0.046-5.241c0-45.746-74.858-89.818-213.689-89.818
		c-112.792,0-212.483,42.239-212.014,93.686l0.249,28.068c0.159,16.823,13.399,30.511,29.508,30.511c0.031,0,0.23,0,0.259,0
		l66.275-0.598c16.25-0.155,29.349-14.081,29.2-31.059c-0.13-13.877,8.314-27.3,23.756-37.794
		c16.718-11.355,42.075-17.949,63.354-17.949c48.75,0,87.847,24.29,88.117,54.153c0.15,16.829,13.379,30.521,29.758,30.521
		l66.275-0.603c8.005-0.069,15.453-3.424,20.996-9.446c5.288-5.755,8.195-13.297,8.2-21.261
		c21.752,13.19,37.457,36.074,42.263,62.682c5.613,31.044-6.111,64.515-29.867,85.267c-12.474,10.893-26.912,15.674-50.547,16.506
		c-2.403-15.498-9.058-30.142-19.368-42.187l-105.793-99.542v-28.442h-20.417v22.645H184.92v-22.645h-20.417v28.438
		c0,0-84.233,77.965-105.016,98.748c-22.132,22.132-21.154,58.539-21.154,58.539c0,46.745,38.032,84.778,84.778,84.778h180.92
		c45.126,0,82.115-35.43,84.64-79.926c21.426-0.713,43.573-4.473,63.114-21.536C480.824,309.665,495.16,268.737,488.311,230.775z
		 M396.575,182.01l-66.346,0.603c-4.964,0-9.092-4.611-9.092-10.288c0-45.335-52.305-74.386-108.714-74.386
		c-26.424,0-54.631,7.886-74.639,21.479c-21.285,14.455-32.899,33.94-32.709,54.865c0.05,5.717-3.978,10.413-8.972,10.458
		L29.83,185.34h-0.07c-4.964,0-9.042-4.616-9.092-10.284l-0.249-28.063c-0.309-33.741,82.237-73.084,191.777-73.084
		c107.485,0,193.093,32.805,193.093,69.586l0.249,28.073C405.537,176.395,402.288,182.01,396.575,182.01z M368.402,351.73
		c0,35.491-28.881,64.361-64.371,64.361h-180.92c-35.491,0-64.361-28.87-64.361-64.361c0,0-0.678-26.484,15.133-44.058
		l104.875-98.605h69.626l104.885,98.605C369.627,325.272,368.402,351.73,368.402,351.73z"/>
</g>
<g>
</g>
<g>
</g>
<g>
</g>
<g>
</g>
<g>
</g>
<g>
</g>
<g>
</g>
<g>
</g>
<g>
</g>
<g>
</g>
<g>
</g>
<g>
</g>
<g>
</g>
<g>
</g>
<g>
</g>
</svg>
